<svg width="48" height="48" viewBox="0 0 48 48" fill="none" xmlns="http://www.w3.org/2000/svg">
<g clip-path="url(#clip0_244_3922)">
<path d="M24 10.5C31.4558 10.5 37.5 16.5442 37.5 24C37.5 31.4558 31.4558 37.5 24 37.5C16.5442 37.5 10.5 31.4558 10.5 24C10.5 16.5442 16.5442 10.5 24 10.5Z" fill="url(#paint0_radial_244_3922)"/>
<path d="M24 39.75C25.2427 39.75 26.25 40.7573 26.25 42V44.25C26.25 45.4927 25.2427 46.5 24 46.5C22.7573 46.5 21.75 45.4927 21.75 44.25V42C21.75 40.7573 22.7573 39.75 24 39.75ZM38.319 35.1371L39.91 36.728C40.7886 37.6067 40.7886 39.0311 39.91 39.91C39.0313 40.7886 37.6067 40.7886 36.728 39.91L35.1371 38.319C34.2584 37.4402 34.2584 36.0157 35.1371 35.1371C36.0157 34.2582 37.4404 34.2582 38.319 35.1371ZM9.68096 35.1371C10.5596 34.2582 11.9843 34.2582 12.863 35.1371C13.674 35.9481 13.7364 37.2244 13.0501 38.107L12.863 38.319L11.272 39.91C10.3933 40.7886 8.96865 40.7886 8.08998 39.91C7.27888 39.0989 7.21649 37.8226 7.9028 36.94L8.08998 36.728L9.68096 35.1371ZM6 21.75C7.24263 21.75 8.25 22.7573 8.25 24C8.25 25.1539 7.3814 26.1049 6.2624 26.2349L6 26.25H3.75C2.50737 26.25 1.5 25.2427 1.5 24C1.5 22.8461 2.3686 21.8951 3.4876 21.7651L3.75 21.75H6ZM44.25 21.75C45.4927 21.75 46.5 22.7573 46.5 24C46.5 25.2427 45.4927 26.25 44.25 26.25H42C40.7573 26.25 39.75 25.2427 39.75 24C39.75 22.7573 40.7573 21.75 42 21.75H44.25ZM8.09005 8.08998C8.90113 7.2789 10.1774 7.21651 11.0601 7.90281L11.272 8.08998L12.863 9.68098C13.7417 10.5596 13.7417 11.9843 12.863 12.863C12.0519 13.674 10.7757 13.7364 9.893 13.0501L9.68103 12.863L8.09005 11.272C7.21135 10.3933 7.21135 8.96865 8.09005 8.08998ZM39.91 8.09002C40.7886 8.96869 40.7886 10.3933 39.91 11.272L38.319 12.863C37.4402 13.7417 36.0157 13.7417 35.1371 12.863C34.2582 11.9843 34.2582 10.5597 35.1371 9.68101L36.728 8.09002C37.6067 7.21133 39.0311 7.21133 39.91 8.09002ZM24 1.5C25.2427 1.5 26.25 2.50737 26.25 3.75V6C26.25 7.24263 25.2427 8.25 24 8.25C22.7573 8.25 21.75 7.24263 21.75 6V3.75C21.75 2.50737 22.7573 1.5 24 1.5Z" fill="url(#paint1_linear_244_3922)"/>
</g>
<defs>
<radialGradient id="paint0_radial_244_3922" cx="0" cy="0" r="1" gradientUnits="userSpaceOnUse" gradientTransform="translate(14.625 13.875) rotate(43.0203) scale(31.2859)">
<stop offset="0.193671" stop-color="#FFE475"/>
<stop offset="0.529275" stop-color="#FFB029"/>
<stop offset="0.780467" stop-color="#FF9100"/>
</radialGradient>
<linearGradient id="paint1_linear_244_3922" x1="1.21875" y1="1.21875" x2="46.7813" y2="46.7813" gradientUnits="userSpaceOnUse">
<stop offset="0.166667" stop-color="#FFE475"/>
<stop offset="0.798611" stop-color="#FFBF29"/>
</linearGradient>
<clipPath id="clip0_244_3922">
<rect width="48" height="48" fill="white"/>
</clipPath>
</defs>
</svg>
